<svg xmlns="http://www.w3.org/2000/svg" viewBox="0 0 120 40" width="120" height="40">
  <defs>
    <linearGradient id="iconGradient" x1="0%" y1="0%" x2="100%" y2="100%">
      <stop offset="0%" style="stop-color:#3b82f6;stop-opacity:1" />
      <stop offset="100%" style="stop-color:#1e40af;stop-opacity:1" />
    </linearGradient>
  </defs>
  
  <!-- Docker容器图标 -->
  <g transform="translate(5, 8)">
    <rect x="0" y="8" width="6" height="4" fill="url(#iconGradient)" rx="1" />
    <rect x="8" y="8" width="6" height="4" fill="url(#iconGradient)" rx="1" />
    <rect x="16" y="8" width="6" height="4" fill="url(#iconGradient)" rx="1" />
    <rect x="4" y="14" width="6" height="4" fill="url(#iconGradient)" rx="1" />
    <rect x="12" y="14" width="6" height="4" fill="url(#iconGradient)" rx="1" />
    <rect x="8" y="2" width="6" height="4" fill="url(#iconGradient)" rx="1" />
  </g>
  
  <!-- 转换箭头 -->
  <path d="M32 20 L38 20 M36 18 L38 20 L36 22" stroke="#6b7280" stroke-width="1.5" fill="none" stroke-linecap="round" stroke-linejoin="round" />
  
  <!-- 文字 D2C -->
  <text x="45" y="18" font-family="Arial, sans-serif" font-size="14" font-weight="bold" fill="#1f2937">D2C</text>
  <text x="45" y="30" font-family="Arial, sans-serif" font-size="8" fill="#6b7280">Web UI</text>
  
  <!-- Compose文件图标 -->
  <g transform="translate(85, 10)">
    <rect x="0" y="0" width="14" height="18" fill="#10b981" rx="1" />
    <rect x="1" y="1" width="12" height="16" fill="#ffffff" rx="0.5" />
    <line x1="2" y1="4" x2="12" y2="4" stroke="#10b981" stroke-width="0.8" />
    <line x1="3" y1="6" x2="10" y2="6" stroke="#059669" stroke-width="0.6" />
    <line x1="3" y1="8" x2="11" y2="8" stroke="#059669" stroke-width="0.6" />
    <line x1="2" y1="10" x2="9" y2="10" stroke="#10b981" stroke-width="0.8" />
    <line x1="3" y1="12" x2="10" y2="12" stroke="#059669" stroke-width="0.6" />
    <line x1="2" y1="14" x2="8" y2="14" stroke="#10b981" stroke-width="0.8" />
  </g>
</svg>